<?xml version="1.0" encoding="utf-8"?>
<!-- Generator: Adobe Illustrator 26.0.1, SVG Export Plug-In . SVG Version: 6.00 Build 0)  -->
<svg version="1.1" id="Capa_1" xmlns="http://www.w3.org/2000/svg" xmlns:xlink="http://www.w3.org/1999/xlink" x="0px" y="0px"
	 viewBox="0 0 284.2 290.5" style="enable-background:new 0 0 284.2 290.5;" xml:space="preserve">
<style type="text/css">
	.st0{fill-rule:evenodd;clip-rule:evenodd;fill:#D20A11;}
	.st1{fill:#FFFFFF;}
	.st2{fill:none;}
</style>
<symbol  id="Isotipo_color" viewBox="-58.7 -60 117.4 120.1">
	<path class="st0" d="M0.2-50.9c6.3-7.2,13.7-9,23.8-9c19.2,0,34.7,16.4,34.7,36.6c0,13.2-3.6,26.2-10.4,37.5
		C40.7,27,14.5,52.8,0.1,60C-13.1,53.3-39.7,27.6-48.3,14c-6.9-11.2-10.5-24.2-10.4-37.4C-58.7-43.7-43.1-60-24-60
		C-13.9-60-6.2-58.1,0.2-50.9z"/>
	<path class="st1" d="M39.5-9.1c0.3,0.7,0.4,1.4,0.5,2.2c0.1,0.8,0.1,1.6,0.1,2.5c0,1.3-0.5,2.8-1.8,2.8c-0.7,0-1.1-1-1.1-1.7
		C37-3.1,36.7-3,36.3-3c-0.7,0-0.9-0.5-1-1.4c0-1.8,0.6-1.7,0.5-2.7c-0.4-2.2-1.8-4.1-3.8-5.1l0.1,1.7c0,0.1,0,0.1-0.1,0.1L31-9.5
		l0.9,0.8c0,0,0,0.1,0,0.1l2.6,17.9c0,0,0,0,0,0.1L37,12c0,0.1,0,0.2,0,0.2c0,0-0.1,0-0.1,0h-9.2c-0.1,0-0.1,0-0.1-0.1l-1.2-3.8
		c0-0.1-0.1-0.1-0.2-0.1c0,0-0.1,0.1-0.1,0.1l-1.3,3.8c0,0.1-0.1,0.1-0.1,0.1H15c-0.1,0-0.1-0.1-0.1-0.1c0,0,0-0.1,0-0.1l2.2-2.7
		c0,0,0,0,0-0.1l3-17.9c0,0,0-0.1,0-0.1L21-9.5l-1.1-0.8c0,0-0.1-0.1-0.1-0.1l-0.1-1.7l-3.4,6.3c0,0,0,0.1,0,0.1
		c0.1,0.3,0.1,0.7,0.1,1c0,1.3-1,2.4-2.3,2.4c0,0,0,0,0,0c-1.1,0-2-0.9-2-2c0-0.3,0.1-0.5,0.2-0.8c0,0,0-0.1,0-0.1l-6.4-7.4
		c-0.1-0.1-0.1-0.1-0.2,0c0,0,0,0,0,0.1l-0.4,2.2L4.3-9.8l5.6,8c0,0.1,0,0.2,0,0.2c0,0-0.1,0-0.1,0H4.6c-0.1,0-0.1,0.1-0.1,0.2
		c0,0,0,0,0,0l4.9,12c0,0,0,0,0,0.1l1.8,1.7h-8c-0.1,0-0.1,0-0.1-0.1L0.1,5.6C0,5.5,0,5.5-0.1,5.5c0,0-0.1,0-0.1,0.1l-3.4,6.6
		c0,0-0.1,0.1-0.1,0.1h-9l2.1-1.7c0,0,0,0,0-0.1l6.1-12c0-0.1,0-0.2-0.1-0.2c0,0,0,0-0.1,0h-4.7c-0.1,0-0.1-0.1-0.1-0.1
		c0,0,0,0,0-0.1l5.1-8l-1-0.4c0,0-0.1-0.1-0.1-0.1l-0.2-2.2c0-0.1-0.1-0.1-0.2-0.1c0,0-0.1,0-0.1,0.1l-5.5,6.9c0,0,0,0.1,0,0.1
		c0,0.2,0.2,0.9,0.2,1c0,1.3-1,2.4-2.3,2.4c0,0,0,0,0,0c-1.2,0-2.3-0.9-2.3-2.2c0,0,0-0.1,0-0.1c0-0.2,0-0.4,0-0.6l-5.2-6.5l0.5,2.8
		l-0.9,0.2v0.9h0.9l2,17.1c0,0,0,0,0,0.1l2.3,2.7c0,0.1,0,0.1,0,0.2c0,0-0.1,0-0.1,0h-8.8c-0.1,0-0.1,0-0.1-0.1l-1.3-3.8
		c0-0.1-0.1-0.1-0.2-0.1c0,0-0.1,0.1-0.1,0.1l-1.2,3.8c0,0.1-0.1,0.1-0.1,0.1h-8.7c-0.1,0-0.1-0.1-0.1-0.1c0,0,0-0.1,0-0.1l2.1-2.7
		c0,0,0,0,0-0.1l1.9-17.1h0.9v-0.9l-0.9-0.2l0.3-2.8c-1.7,1.3-2.9,3.3-3.3,5.4c-0.1,1,0.5,0.9,0.5,2.7c-0.1,0.9-0.3,1.4-1,1.4
		c-0.3,0-0.6-0.2-0.9-0.4c0,0.7-0.4,1.7-1.1,1.7c-1.3,0-1.8-1.5-1.8-2.8c0-0.8,0-1.6,0.1-2.5c0.1-0.9,0.2-1.8,0.5-2.7
		c1.1-3.3,2.2-4.7,4.3-7.7c0,0,0-0.1,0-0.1l-0.3-1.1c0,0,0-0.1,0-0.2l4.8-3.7c0,0,0,0,0-0.1l0.3-1.2h1.1V-24c0-0.1,0-0.1-0.1-0.1
		c-2.5-1-4.7-2.8-6.1-5.1c-0.3,0.1-0.5,0.2-0.8,0.2c-1.3-0.1-2.4-1.3-2.3-2.6c0-1.1,0.6-2.1,1.6-2.5c0-0.2,0-0.4,0-0.6
		c0-5.9,4.5-10.8,10.1-10.8s10.1,4.8,10.1,10.8c0,0.3,0,0.7,0,1c0.6,0.5,1,1.3,0.9,2.1c0.1,1.4-0.9,2.5-2.2,2.7c0,0,0,0,0,0h-0.2
		c-1.4,2.3-3.6,4.1-6.1,5v1.2h1l0.3,1.3c0,0,0,0.1,0,0.1l4.1,3.6c0,0,0,0.1,0,0.2l-0.4,1.1c0,0,0,0.1,0,0.1l5.7,6.9
		c0,0.1,0.1,0.1,0.2,0c0,0,0,0,0,0l5.5-7.5c0,0,0-0.1,0-0.1l-0.4-1.6c0-0.1,0-0.1,0.1-0.2l5.9-3.3c0,0,0.1-0.1,0.1-0.1v-2.3
		c0-0.1,0-0.1-0.1-0.1c-2.9-0.8-5.4-2.8-6.8-5.5c0,0-0.1-0.1-0.1-0.1h-2.9c-0.1,0-0.1-0.1-0.1-0.1c-0.2-0.8-0.2-1.6-0.2-2.5
		c0-6.9,5.5-12.6,12.4-12.9h0.6C7.1-45.6,12-40,12-32.9c0,0.6-0.1,1.8-0.2,2.5c0,0.1-0.1,0.1-0.1,0.1H8.9c-0.1,0-0.1,0-0.1,0.1
		c-1.1,2.7-3.5,4.7-6.3,5.4c-0.1,0-0.1,0.1-0.1,0.1v2.2c0,0,0,0.1,0.1,0.1l5.4,3.5C8-18.8,8-18.7,8-18.6l-0.4,1.4c0,0,0,0.1,0,0.1
		l6.1,7.5c0,0.1,0.1,0.1,0.2,0c0,0,0,0,0,0l4.9-7.8c0,0,0-0.1,0-0.1l-0.3-1.2c0,0,0-0.1,0-0.2l4-3c0,0,0.1-0.1,0.1-0.2l-0.4-1.3h2
		v-1c-2.6-0.5-4.9-2.1-6.3-4.3c-0.2,0.1-0.5,0.2-0.8,0.2c-1.3-0.1-2.4-1.3-2.3-2.6c0-0.9,0.4-1.8,1.2-2.3c0,0,0.1-0.1,0.1-0.1
		c0-0.4-0.1-0.8-0.1-1.3c0-5.9,4.5-10.8,10.1-10.8s10.1,4.8,10.1,10.8c0,0.4,0,0.8-0.1,1.2c0,0.1,0,0.1,0.1,0.1
		c0.8,0.5,1.3,1.4,1.3,2.4c0.1,1.3-0.9,2.5-2.3,2.6c-0.3,0-0.6-0.1-0.8-0.2c-1.5,2.1-3.7,3.7-6.2,4.3v1h2.3l-0.5,1.3
		c0,0,0,0.1,0,0.2l3.7,3c0,0,0.1,0.1,0.1,0.2l-0.3,1.2c0,0,0,0.1,0,0.2C36.1-15,38.7-12.7,39.5-9.1z"/>
	<path class="st1" d="M-36.9,23.3v-8.8h6v2.1h-3.6V18h3v2h-3v3.2H-36.9z"/>
	<path class="st1" d="M-23.9,21.1v2.1h-6.3v-8.8h6.2v2.1h-3.7v1.2h3.2v2h-3.2v1.3H-23.9z"/>
	<path class="st1" d="M-20.2,14.5l1.6,3.6l1.6-3.6h2.6l-3,5.9v2.9h-2.4v-2.9l-3-5.8L-20.2,14.5z"/>
	<path class="st1" d="M-10.8,14.5h2.7l2.8,8.8h-2.4l-0.5-1.7h-2.5l-0.5,1.7h-2.4L-10.8,14.5z M-8.6,20l-0.8-3.1l-0.8,3.1H-8.6z"/>
	<path class="st1" d="M-4.9,23.3v-8.8h2.4v6.7h4v2.1L-4.9,23.3z"/>
	<path class="st1" d="M8.3,21.1v2.1H2v-8.8h6.2v2.1H4.4v1.2h3.2v2H4.4v1.3H8.3z"/>
	<path class="st1" d="M12.9,23.3c-0.6,0-1.1-0.1-1.6-0.3c-0.5-0.2-1-0.5-1.4-0.9c-0.4-0.4-0.7-0.9-0.9-1.4c-0.2-0.6-0.4-1.3-0.3-1.9
		c0-0.6,0.1-1.2,0.3-1.7c0.2-0.5,0.6-1,1-1.4c0.4-0.4,0.9-0.7,1.4-0.9c0.6-0.2,1.2-0.3,1.8-0.3c0.7,0,1.5,0.2,2.1,0.5
		c0.6,0.3,1.1,0.8,1.4,1.4L15,17.7c-0.2-0.4-0.4-0.6-0.8-0.8c-0.3-0.2-0.7-0.3-1.1-0.3c-0.3,0-0.5,0.1-0.8,0.2
		c-0.2,0.1-0.4,0.3-0.6,0.5c-0.2,0.2-0.3,0.5-0.3,0.7c-0.2,0.6-0.2,1.3,0,1.9c0.1,0.3,0.2,0.5,0.4,0.7c0.2,0.2,0.4,0.4,0.6,0.5
		c0.3,0.1,0.5,0.2,0.8,0.2c0.4,0,0.8-0.1,1.1-0.3c0.4-0.2,0.7-0.5,1-0.8v2.3C14.7,23,13.8,23.3,12.9,23.3z M15.1,20.3h-1.6v-1.7h3.6
		v4.7h-2L15.1,20.3z"/>
	<path class="st1" d="M18.2,23.3v-8.8h4c0.4,0,0.8,0.1,1.2,0.3c0.4,0.2,0.7,0.4,0.9,0.7c0.3,0.3,0.5,0.6,0.6,1
		c0.1,0.3,0.2,0.7,0.2,1.1c0,0.3,0,0.7-0.2,1c-0.1,0.3-0.2,0.6-0.4,0.9c-0.2,0.3-0.4,0.5-0.7,0.7l1.8,3.2h-2.6l-1.5-2.7h-1v2.7H18.2
		z M20.6,18.5h1.5c0.1,0,0.2,0,0.3-0.1c0.1-0.1,0.2-0.2,0.2-0.3c0.1-0.2,0.1-0.3,0.1-0.5c0-0.2,0-0.4-0.1-0.5
		c-0.1-0.1-0.2-0.2-0.3-0.3c-0.1-0.1-0.2-0.1-0.3-0.1h-1.5L20.6,18.5z"/>
	<path class="st1" d="M26.4,23.3v-8.8h2.4v8.8H26.4z M28.3,14.1l-1.5-0.4l0.6-1.8h2.1L28.3,14.1z"/>
	<path class="st1" d="M32,14.5h2.7l2.8,8.8h-2.5l-0.5-1.7h-2.5l-0.4,1.7h-2.5L32,14.5z M34.2,20l-0.9-3.1L32.5,20H34.2z"/>
</symbol>
<g id="Elementos">
	<g>
		<defs>
			<rect id="SVGID_1_" x="0.2" width="284" height="290.6"/>
		</defs>
		<clipPath id="SVGID_00000151506101944179332970000004670418543739304324_">
			<use xlink:href="#SVGID_1_"  style="overflow:visible;"/>
		</clipPath>
		<g style="clip-path:url(#SVGID_00000151506101944179332970000004670418543739304324_);">
			
				<use xlink:href="#Isotipo_color"  width="117.4" height="120.1" x="-58.7" y="-60" transform="matrix(2.42 0 0 2.42 141.8545 145.321)" style="overflow:visible;"/>
		</g>
	</g>
	<rect x="-141.4" y="-141.5" class="st2" width="566.9" height="573.5"/>
	<rect x="-141.4" y="-141.5" class="st2" width="566.9" height="573.5"/>
</g>
</svg>
